<svg xmlns="http://www.w3.org/2000/svg" style="transform: scale(0.6) translateY(-30vh)" id="Layer_1" width="715.59" height="637.59" data-name="Layer 1"><defs><style>.cls-1{fill:#fff}.cls-3{fill:#231f20}</style></defs><path d="M102.21.09Q298.45-.18 494.72.01c13.77.06 27.55-.18 41.32.33a26.88 26.88 0 0 0 7.54.87l-.21.74c3.82 0 7.65.09 11.47.35 1.59.37 3.15.76 4.75 1.12l-.25.5q3.78.1 7.56.42c1.38.43 2.77.84 4.19 1.2s2.63.52 4 .77l3.51 1.1-.24.42a22.51 22.51 0 0 1 7.71 1.69c1.23.35 2.48.69 3.74 1l2.24 1 2.85.92c2.39.94 4.75 2 7.06 3.1 1.72.73 3.43 1.5 5.14 2.27l3 1.61q2.82 1.49 5.56 3.13c1.09.66 2.2 1.27 3.31 1.93 16.68 10.73 28.82 26.63 42.82 40.32 11.93 11.78 23.24 24.15 35 36.1a78.8 78.8 0 0 1 9.75 13c.68 1.43 1.32 2.89 2 4.35h.63c.43 1.66.92 3.31 1.35 5h.59c.41 1.58.87 3.14 1.34 4.71a46.71 46.71 0 0 1 2 8.9c1.47 5.15.84 10.58 1.13 15.87a90.14 90.14 0 0 1-2.19 21.79q-.18 1.86-.3 3.72l-.73-.07c-.38 2.39-.89 4.76-1.25 7.15l-.64-.06c-.37 1.94-.86 3.84-1.38 5.74-.79 1.92-1.47 3.88-2.17 5.83a38.43 38.43 0 0 0-1.91 5.53l-.61-.06c-.44 1.67-.92 3.32-1.34 5h-.58a57.53 57.53 0 0 1-2 5.41c-.85 2-1.7 4.05-2.49 6.1-.54 1.26-1.05 2.53-1.59 3.78-1.21 2.87-2.49 5.72-3.41 8.69h-.47a78.47 78.47 0 0 1-4.08 10.34c-1.66 4.48-3.65 8.83-5.4 13.27a99.1 99.1 0 0 0-4.07 10.29l-.53.1c-.48 1.46-1 2.92-1.43 4.39-2.34 4.95-4 10.23-6.39 15.1-.59 1.47-1.13 3-1.59 4.48l-.54.06c-.47 1.21-1 2.42-1.43 3.64-1.15.49-2.28 1-3.41 1.49-3.54 2.19-7.21 4.15-10.87 6.12-2.46 1.43-5 2.75-7.57 3.93l-.07.44c-2.32 1-4.53 2.27-6.73 3.51-1.29.69-2.57 1.36-3.86 2q-5.86 3.36-11.76 6.66c-2.18 1.21-4.36 2.41-6.63 3.46l.17.42c-3.85 1.27-7.09 3.84-10.75 5.55-1.57.87-3.15 1.73-4.7 2.63-.86.44-1.71.88-2.55 1.33-1.26.59-2.54 1.13-3.76 1.78.12 1.77 1.31 3.3 2 4.9l.43.07c2.07 4.12 4.21 8.21 6.11 12.42.36 1.46.47 3.17 1.74 4.22.59 1.78 1.14 3.58 1.57 5.41h.63c.45 2.32 1 4.62 1.41 7h.55c.26 1.53.56 3.05.94 4.56.15 1.51.3 3 .42 4.55l.77-.16a229.25 229.25 0 0 1 1 37.88c-.44 2.61-.8 5.24-1 7.88-.86 3.3-1.45 6.66-2.07 10-.77 2.29-1.4 4.62-2 6.95a42.85 42.85 0 0 0-2 6.39h-.62c-.42 1.65-.89 3.29-1.31 4.95h-.89V451l-1.44 2.78a47.06 47.06 0 0 0-2.28 5.77c-1.2 2.92-2.45 5.82-3.37 8.85h-.63c-.44 1.65-.92 3.28-1.34 4.94h-.68c-.43 1.66-.9 3.31-1.32 5h-.61c-1.8 5.25-4 10.35-6.26 15.43-.4 1.21-.77 2.42-1.12 3.66h-.65c-.43 1.65-.91 3.28-1.33 4.94l-.58.08a56.41 56.41 0 0 1-2.13 5.45c-.51 1.45-1 2.91-1.44 4.38l-.51.08c-1 2.95-2.22 5.79-3.41 8.66-.74 1.61-1.43 3.24-2.11 4.88-.66 1.34-1.28 2.69-1.9 4.06-2.76 5.27-5.47 10.58-8.66 15.62-1.14 1.79-2.29 3.57-3.42 5.37-9.24 13.22-19.94 25.51-32.54 35.63-1.83 1.52-3.63 3.07-5.42 4.64l-2.69 1.4-.06.52c-2.41 1.72-4.86 3.38-7.4 4.91a48.52 48.52 0 0 1-6.06 4 58.52 58.52 0 0 1-4.1 2.65c-2.35 1.3-4.69 2.62-7.06 3.87l-4 2.05c-1 .48-1.9 1-2.84 1.49a49 49 0 0 0-7.26 3.6c-2.65.93-5.26 2-7.88 3a36.19 36.19 0 0 1-5.43 1.94v.51c-1.56.38-3.1.82-4.62 1.3a35.77 35.77 0 0 1-7.39 2.15v.55c-.91.25-1.82.53-2.72.82-1.43.21-2.85.4-4.27.59l.07.69a57.71 57.71 0 0 0-5.82 1.19 32.77 32.77 0 0 1-10.26 2.12l.06.68c-3.37.41-6.7 1.14-10.1 1.31l.1.67c-1.29.14-2.56.3-3.83.46a53.81 53.81 0 0 1-6.8.77c-1.37.33-2.74.69-4.09 1a76.34 76.34 0 0 1-12.64.82l.25 1.07q-1-.5-2.07-1l-3.78.15-.08.79c-24.13.61-48.27.25-72.41.35-83.1 0-166.2.08-249.3-.07Q33.31 606 1.79 574.8c-.65-.94-2.21-1.66-1.7-3 1.08-3.84 3-7.36 4.42-11.09a51.85 51.85 0 0 0 2-5.39h.48a55.49 55.49 0 0 1 2-5.42c1.07-2.64 2.2-5.25 3.35-7.85l-.25-.08a27 27 0 0 0 2.41-5.27c.92-2.22 1.8-4.46 2.79-6.65.41-1.25.82-2.49 1.21-3.74h.65c.44-1.66.92-3.29 1.34-5h.57c2.08-6.38 5.1-12.4 7.44-18.69 1-2.19 1.85-4.42 2.82-6.61.41-1.24.83-2.46 1.23-3.68l.48-.07c1.77-5.66 4.59-10.92 6.54-16.52.56-1.26 1.11-2.51 1.7-3.75.4-1.25.81-2.48 1.21-3.71h.64c.43-1.67.91-3.32 1.34-5h.61a42.73 42.73 0 0 1 1.94-5.39c.69-1.68 1.38-3.36 2.11-5 .93-2.35 1.93-4.66 2.9-7a57.72 57.72 0 0 0 2.5-6.6h.57c.44-1.65.92-3.29 1.36-4.94h.69c.43-1.68.92-3.35 1.35-5h.62c.38-1.24.79-2.47 1.18-3.69.6-1.24 1.16-2.49 1.73-3.73 1.41-3.77 3-7.47 4.56-11.18a47.64 47.64 0 0 0 2-5.39l.51-.05c.39-1.23.81-2.46 1.23-3.68.86-1.88 1.62-3.8 2.36-5.73.61-1.4 1.2-2.82 1.8-4.22.74-1.64 1.39-3.31 2-5a102.66 102.66 0 0 0 4.13-10.37h.57c.42-1.67.89-3.33 1.31-5h.64c.37-1.24.77-2.46 1.17-3.68 2.79-6.77 6-13.41 8.25-20.38h.55c.39-1.24.8-2.46 1.22-3.67a36.48 36.48 0 0 0 2.3-6.21l.84-.08c0-.37 0-1.1-.07-1.47.92-2 1.84-4 2.69-6 .51-1.35 1.06-2.68 1.56-4 1.74-4.11 3.72-8.13 4.94-12.44l.49-.09c1.11-3.5 2.64-6.85 4-10.24a31.72 31.72 0 0 1 2.49-5.35 70 70 0 0 1 3-7.9 42.73 42.73 0 0 0 1.94-5.39h.59c.44-1.68.94-3.35 1.38-5h.58c1.44-4.69 3.66-9.08 5.41-13.65q1.07-2.44 2-4.92c.72-1.67 1.41-3.35 2.18-5 1.25-1.36 1.35-3.28 1.91-4.94 1.48-1.6 1.67-3.89 2.47-5.83.44-1.13.89-2.26 1.36-3.37s1.07-2.5 1.6-3.75c.8-2 1.66-4.08 2.5-6.12a47.26 47.26 0 0 0 2-5.4l.61-.08c.44-1.66.92-3.3 1.35-4.95h.58c1-2.94 2.21-5.77 3.35-8.64.55-1.25 1.06-2.52 1.59-3.77 1.22-2.7 2.47-5.45 2.51-8.46q-16.35-15.82-32.17-32.19c0-5.68-1.33-11.25-1.14-16.94h-.84c-.16-12.23-2.78-24.25-3.33-36.46-1.12-3.51-.73-7.26-1.38-10.86-.65-8.64-2.43-17.2-2.4-25.89l-.86.36c.21-6.41-1.31-12.71-1.19-19.11l-.84-.08c-.28-12.39-3.1-24.58-3.18-37l-.82.1c.12-6.41-1.4-12.71-1.19-19.12l-.9.12c0-.92-.02-2.55-.02-3.37Zm21.57 20c.24 1.36.48 2.73.74 4.09.46 2 .81 4 1.29 5.92.26 4.27.19 8.54.38 12.81.44 1.33.9 2.65 1.34 4 1.17 6-.55 12.34 1.92 18.07 1 5.11.41 10.35.73 15.51l.71-.16c.25 1.61.5 3.22.88 4.8.58 4.94-.37 10.06 1.1 14.88 2 5.41.69 11.26 1.44 16.87 2.44 5.85 1.44 12.25 1.92 18.4.57 1.58 1.12 3.18 1.69 4.76.36 5.62-.78 11.58 1.71 16.85.16 1.19.31 2.38.45 3.58h.38c11 11.54 22.56 22.6 33.75 34 1.18 1.09 1.33 2.74 1.88 4.17-3.73 4.64-4.45 11.19-7.66 16.29-.45 1.51-.89 3-1.27 4.57l-.94-.08-.39 3.32c-3.16 5.07-4.32 11.09-7.27 16.29-.49 1.35-1 2.72-1.43 4.1a57.77 57.77 0 0 1-2.62 5.78 15.3 15.3 0 0 1-2.25 5c-.13 1-.25 2-.37 3l-1.57 1.49a11 11 0 0 1-2.12 5.33c-.13 1-.25 1.94-.38 2.92-1.79 1.68-1.92 4.28-3.29 6.24-.5 1.35-1 2.7-1.43 4.06a40.39 40.39 0 0 1-2.61 5.85 35.56 35.56 0 0 1-2 5c-1 3.83-3.12 7.24-4.5 10.95-1.11 2.73-2 5.6-3.52 8.12-.46 1.51-.9 3-1.29 4.57l-1-.07c-.11 1.11-.22 2.22-.34 3.33a7.94 7.94 0 0 0-2.13 5c-1.57 1.19-1.67 3.18-2.05 5a48.68 48.68 0 0 0-3.1 6.27c-.52 1.35-1 2.72-1.47 4.1a37.7 37.7 0 0 1-2.7 5.73c-.45 1.48-.88 3-1.27 4.46h-.74a32.5 32.5 0 0 1-2.76 7.66 17.35 17.35 0 0 0-2 5.74c-1.51 1.57-2 3.69-2.5 5.75l-.73-.12c-.38 1.55-.82 3.1-1.31 4.63a25.51 25.51 0 0 0-1.53 3.74c-1.28 2.29-2.21 4.74-3.33 7.11l-.45 2.88c-2.27 2.83-3.22 6.42-4.24 9.83-1.28 2-2 4.26-3.1 6.33a12.08 12.08 0 0 1-2.22 5c-.14 1-.26 2-.38 3.08l-1.5 1.45c-.79 2.81-2.08 5.46-2.74 8.32-1.52 1.8-1.75 4.26-3.1 6.18-.48 1.34-.93 2.71-1.39 4.07a10.79 10.79 0 0 0-1.31 4.1l-1.54 1.46-.46 3.18a8.58 8.58 0 0 0-2.13 5c-3.2 5-4.16 11.09-7.26 16.14-.46 1.5-.89 3-1.27 4.54l-.75-.07a17.12 17.12 0 0 1-2 5.43 28.16 28.16 0 0 1-2.12 5.11c-.16 1-.31 1.93-.46 2.91-1.66 1.73-2 4.18-3.21 6.21-.52 1.34-1 2.71-1.49 4.08a30.13 30.13 0 0 1-2.64 5.8 15.53 15.53 0 0 1-2 5c-.86 3.46-2.73 6.53-4.07 9.82a18.44 18.44 0 0 1-2.08 5c-.36 1.28-.74 2.57-1.08 3.87l-.81-.19a12.89 12.89 0 0 1-1.91 5.63c-.61 2.7-2.25 5-2.84 7.72a9.18 9.18 0 0 0-1.92 5c-1.56 1.81-2.21 4.12-3.13 6.28-1.32 3.3-2.21 6.84-4.21 9.84-.46 1.5-.89 3-1.28 4.56h-.74c-.27 3-2.2 5.45-2.7 8.4-1.68 1.6-1.83 4-2.48 6.12 16.11 16.9 33 33.05 49.35 49.74h248.18c23.17-.13 46.36.33 69.53-.37v-.83c2.52-.09 5-.26 7.56-.46 3.56-.73 7.38-.09 10.78-1.53a80.83 80.83 0 0 1 10.74-1.24l-.22-.81c3.08-.44 6.16-.94 9.28-1.14l-.22-.72c1.21-.27 2.42-.55 3.63-.85 1.53-.15 3.07-.28 4.61-.39l-.24-.84c2.4-.43 4.8-.91 7.22-1.23l-.22-.71a25.27 25.27 0 0 0 8.71-2.71c1.17-.17 2.34-.32 3.53-.45l-.14-.88 3.46-.62c1.65-.78 3.3-1.55 5-2.23a57.56 57.56 0 0 1 6.65-2.46l-.12-.54c5.76-2 11.08-5.07 16.4-8 1.43-.83 2.83-1.72 4.23-2.63.88-.49 1.76-1 2.65-1.46a66.66 66.66 0 0 1 5.69-3.54l.08-.36c1.72-1.17 3.43-2.34 5.17-3.48v-.34c3.16-1.44 5.45-4.14 8.14-6.25 2.2-1.73 4.25-3.63 6.36-5.46 1.93-1.78 3.82-3.6 5.63-5.5 2.17-2.43 4.35-4.85 6.48-7.33 1.79-2.37 3.82-4.55 5.58-6.94l.38-.07 1.41-2.78a42 42 0 0 0 4.21-5.73c.66-1.17 1.31-2.34 2-3.51l.41.15c1.08-2.29 2.23-4.55 3.53-6.72a39.26 39.26 0 0 0 2-4.36l.51.07c.42-1.24.86-2.47 1.32-3.68a21.47 21.47 0 0 0 2.14-5.34h.6c1.34-4.88 4-9.27 5.31-14.17l.67.22c.39-1.75.85-3.48 1.27-5.22l.73.16c.42-1.72.89-3.42 1.33-5.12l.66.17c1.34-4.76 3.65-9.15 5.35-13.78.78-1.61 1.39-3.3 2-5a33.79 33.79 0 0 0 2-5.39l.7.12c.4-1.7.85-3.38 1.27-5.08h.66a24.27 24.27 0 0 1 2-5.36c1.75-4.62 4-9.07 5.38-13.81l.69.21c.38-1.73.83-3.44 1.24-5.15l.74.1c.42-2 .92-4 1.36-6.06l.73.18c.31-2.44.78-4.86 1.14-7.28l.87.19c.13-2.17.27-4.35.47-6.51a53 53 0 0 0 .73-5.6l.8.07c.13-7.52.5-15-.06-22.55a75.25 75.25 0 0 1-1.91-13.6l-.78.16c-.94-8.09-4.62-15.48-7.48-23l-.49.1a34.39 34.39 0 0 0-4-7.38c-.44-.85-.87-1.7-1.29-2.54-4.16-5.56-8.21-11.21-13.39-15.89l2.8-1c2.15-1.3 4.36-2.51 6.44-3.91l2.25-.5-.12-.68c2.42-1.1 4.76-2.37 7.17-3.51v-.44c3.75-1.65 7.17-4 10.94-5.54v-.49c2.4-1.09 4.72-2.34 7.09-3.5v-.54c1.3-.45 2.61-.93 3.93-1.38v-.6a74.36 74.36 0 0 0 6.68-3.49 33.06 33.06 0 0 1 4.25-2v-.49a69.24 69.24 0 0 0 7.52-4c3.53-1.83 6.89-4 10.58-5.52l-.08-.45c2.33-1 4.56-2.25 6.8-3.46.86-.5 1.72-1 2.6-1.45 2.76-1.59 5.54-3.17 8.44-4.52.68-1.08 1.37-2.14 2.06-3.21a29.21 29.21 0 0 1 1.94-5c1.74-4.6 4-9 5.36-13.73l.66.21c.4-1.73.86-3.44 1.29-5.16l.73.14c.4-1.72.85-3.43 1.28-5.14l.7.16a24 24 0 0 1 2-5.44c1.16-3 2.42-5.85 3.38-8.87l.58.25c.39-1.58.85-3.14 1.33-4.7a17.67 17.67 0 0 0 2.09-5.4l.7.11c.4-1.71.86-3.4 1.28-5.1l.67.12a19.85 19.85 0 0 1 2-5.44c1.68-4.62 4-9 5.35-13.73l.67.19c.4-1.74.86-3.47 1.28-5.21l.74.14c.36-1.7.77-3.39 1.16-5.09l.82.06c.39-2 .86-4.05 1.28-6.07l.76.19c.34-2.41.83-4.78 1.26-7.16l.78.14c.24-3.07.8-6.1 1.2-9.15l.83.12c.48-9.68.51-19.38 0-29.05l-.88.08c-.35-2.39-.84-4.76-1.21-7.15l-.75.13c-.41-1.71-.87-3.4-1.28-5.1l-.64.16c-1.26-3.59-3.6-6.6-6-9.51-3-3.62-6.44-6.76-9.58-10.22-.69-.68-1.37-1.37-2-2.05-11-12-22.73-23.35-34.12-35-7.21-7.71-14-16-22.26-22.55-3-2.8-6.46-4.91-9.79-7.22-.89-.47-1.76-1-2.61-1.42l-2.39-1.31c-1.3-.75-2.61-1.46-3.92-2.16a39.71 39.71 0 0 1-6.18-3.11c-1.82-.36-3.89-.47-4.95-2.22l-4.4-.27.07-1a42.79 42.79 0 0 1-4.66-1c-6.24-2.85-13.34-2.73-19.79-4.83l-1.4-.46a85.7 85.7 0 0 0-11.32-.71l.14-1c-13.19-.68-26.4-.21-39.6-.4-8.6 0-17.22.32-25.8-.23-17.7.52-35.43.23-53.14.19-4.33.11-8.65.11-13 0q-10.49.12-21 0c-33.38.15-66.73-.08-100.09 0q-6.53.09-13 0c-7.65.07-15.3.11-22.94 0-44.45.29-88.78.08-133.09.23Z" class="cls-1"/><path d="M133.61 65.85c126.49.77 253 .11 379.53.34 34.14-.23 69.68.84 101.22 15.4 15.37 6.79 28.64 17.94 38.95 31.08 10.66 21.89 14.58 47.45 6.23 70.82-9.87 26.3-21.58 51.88-31.67 78.08-3.33 7.2-5 16.31-12.47 20.49-27.93 15.86-56.77 30.17-84.21 46.84 29.22 29.43 37.14 76.22 21.43 114.25-12 27.37-22.68 55.29-34.64 82.66C497.77 569 456 599 411.19 612.51a280 280 0 0 1-83.78 12.43Q180 625 32.59 625c-.28-1.07-.79-3.24-1-4.3 51.27-124.82 103.18-249.4 154.78-374.09 2.75-6.11 4.83-12.65 9-18 12.62-7.36 27.39-10.36 39.61-18.56-28.18-1.05-56.54-1.5-84.72.2l-1.35.13c-5-42.31-9.22-84.72-14-127.06-.77-5.76-1.69-11.58-1.3-17.47Z" style="fill:#016f50" transform="translate(-17.21 -56.2)"/><path d="M137.47 29.8c3.52 34.55 7.72 69 11 103.59 21.66 2.13 43.43-.49 65.14.4 34.24 1 68.53-.28 102.72.31-40.68 18.91-83 34.44-124 52.64-2.72 3.46-3.84 7.87-5.6 11.84-48.7 117.05-96.83 234.33-145.66 351.35h266.56c40.7-.66 82.27-8.12 118.17-28 26.83-14.85 49-38.5 60.66-67 9.85-23.93 19.83-47.78 29.71-71.69 9.6-21.94 10.79-47.91 1.81-70.23-7.36-18.6-22.19-33.21-39.19-43.29 35.28-20.14 71.25-39.05 106.66-58.88 3.13-1.45 3.92-5 5.32-7.84 9.78-24 19.86-47.78 29.63-71.74 7.77-18 10.85-39.43 2-57.56-9.21-19.8-29.7-31.21-49.92-36.93-28-8.68-57.71-6.65-86.68-7q-174.18.03-348.33.03Z" class="cls-1"/><path d="M636.1 56.47c16.44 16.09 32 33.12 48.34 49.36 12.22 11.76 16.06 29.61 14.59 46-1.13 18.41-8.66 35.49-15.64 52.29q-13.78 33.38-27.74 66.68c-1.05 3.77-4.84 5.24-7.87 7.08-27.82 14.84-55.19 30.47-83 45.34 29 29 37.49 75.22 22.4 113.07q-15.39 37.19-30.69 74.35a155.22 155.22 0 0 1-31.54 49.21c-25.48 26.83-60 43.48-95.69 52-31.41 7.87-64 8.86-96.18 8.58q-132.35.08-264.7.05c-4.42.84-7.3-2.85-10.08-5.55-15-15.4-30.57-30.29-45.61-45.69a332 332 0 0 1 1.65-4.71c.25 1.06.76 3.23 1 4.3q147.41-.22 294.82-.1a280 280 0 0 0 83.78-12.43c44.85-13.5 86.62-43.5 106.85-86.69 12-27.37 22.68-55.29 34.64-82.66 15.71-38 7.79-84.82-21.43-114.25 27.44-16.67 56.28-31 84.21-46.84 7.49-4.18 9.14-13.29 12.47-20.49 10.09-26.2 21.8-51.78 31.67-78.08 8.33-23.37 4.44-48.93-6.25-70.82Z" class="cls-3"/><path d="M313.79 323.28c4.17-2 6.87 3.9 9.65 6.14 12.5 13.23 26.27 30.39 21 49.89-7.08 18.84-18.65 38.49-38.57 45.75-11.17 2.57-22.81 2-34.14.91 5.93-17.13 13.47-33.62 20.24-50.43 7.41-17.36 13.67-35.23 21.82-52.26Z" class="cls-3"/><path d="M388.48 189.85c28 .08 56.06.67 84.08.34 15.61.76 31.26-1.51 46.82.58-60.08 39.54-119.9 79.48-180 119 15.75-40.21 32.78-79.92 49.1-119.92Zm12.73 19.86c-5.6 16-14.92 30.85-18.36 47.4 12.6-6 23-15.63 35.26-22.3 11.69-8.48 24.87-15 35.54-24.77-17.44-.94-34.98-.66-52.44-.33Z" style="fill:#016e51" transform="translate(-17.21 -56.2)"/><path d="M150.18 210.32c28.18-1.7 56.54-1.25 84.72-.2-12.22 8.2-27 11.2-39.61 18.56-4.13 5.32-6.21 11.86-9 18-12.21-11.95-24.55-23.81-36.11-36.36Z" style="fill:#211f20" transform="translate(-17.21 -56.2)"/><path d="M401.21 209.71c17.46-.33 35-.61 52.44.33-10.67 9.75-23.85 16.29-35.54 24.77-12.24 6.67-22.66 16.32-35.26 22.3 3.44-16.55 12.76-31.44 18.36-47.4Z" style="fill:#241d20" transform="translate(-17.21 -56.2)"/><path d="M325.6 341.5c12.42 13.34 24.67 26.81 37.07 40.17 16 17.36 25.78 44.25 14.53 66.65-10.36 23.52-27.77 47.83-54.76 52.62-20.9 1.7-41.95.38-62.92.81C281.33 448.24 303.86 395 325.6 341.5Zm5.4 38c-8.15 17-14.41 34.9-21.82 52.26-6.77 16.81-14.31 33.3-20.24 50.43 11.33 1.07 23 1.66 34.14-.91 19.88-7.26 31.49-26.91 38.54-45.75 5.3-19.5-8.47-36.66-21-49.89-2.75-2.26-5.45-8.14-9.62-6.16Z" style="fill:#016f51" transform="translate(-17.21 -56.2)"/></svg>